<svg xmlns="http://www.w3.org/2000/svg" width="80" height="80" viewBox="0 0 80 80"><defs><style>.a{fill:#f4f8fd;}.b{fill:#82abec;}.b,.d,.f{stroke:#25282a;}.b,.c,.d,.e,.f{stroke-linecap:round;stroke-linejoin:round;}.b,.c,.d{stroke-width:0.7px;}.c,.d,.e,.f{fill:none;}.c,.e{stroke:#262626;}.e{stroke-width:0.4px;}</style></defs><g transform="translate(-185 -173)"><g transform="translate(185 173)"><circle class="a" cx="40" cy="40" r="40"/><g transform="translate(10.905 10.144)"><path class="b" d="M61.614,51.239a8.518,8.518,0,1,1,4.051-2.265,8.508,8.508,0,0,1-4.051,2.265" transform="translate(-20.876 -24.16)"/><path class="c" d="M68.782,53.1a6.5,6.5,0,0,1-.061,9.129L58.27,72.682l-3.344-8.361" transform="translate(-19.955 -19.636)"/><path class="d" d="M37,49.1a17.732,17.732,0,0,0-1.283,7.791L46.339,67.507a19.109,19.109,0,0,0,7.739-1.336" transform="translate(-24.619 -20.607)"/><path class="d" d="M35.427,52.924s3.311-6.758,13.7-17.146c11.755-11.755,33.031-9.426,33.031-9.426s2.52,21.56-9.237,33.315c-10.386,10.386-17.145,13.7-17.145,13.7Z" transform="translate(-24.681 -26.165)"/><path class="c" d="M50.264,33.826a6.5,6.5,0,0,0-9.128.062L30.685,44.339l8.36,3.343" transform="translate(-25.83 -24.754)"/><line class="e" x1="6.106" y2="6.106" transform="translate(2.703 38.37)"/><g transform="translate(6.394 40.795)"><line class="e" x1="2.363" y2="2.363" transform="translate(2.477)"/><line class="e" x1="1.343" y2="1.343" transform="translate(0 3.497)"/></g><g transform="translate(3.51 43.569)"><line class="e" x1="6.393" y2="6.393" transform="translate(4.106)"/><line class="e" x1="2.972" y2="2.972" transform="translate(0 7.527)"/></g><g transform="translate(3.109 49.514)"><line class="e" x1="6.774" y2="6.774" transform="translate(2.936)"/><line class="e" x1="1.405" y2="1.405" transform="translate(0 8.305)"/></g><g transform="translate(14.735 48.721)"><line class="e" x1="4.426" y2="4.426"/></g><g transform="translate(35.712 15.675)"><line class="f" y1="5.559" x2="5.559" transform="translate(0 0.614)"/><path class="f" d="M57.025,38.782l4.244.062.062,4.244" transform="translate(-55.158 -38.782)"/></g><line class="e" y1="5.287" x2="5.287" transform="translate(37.281 45.174)"/><line class="e" y1="5.287" x2="5.287" transform="translate(7.583 15.475)"/><line class="e" x1="2.213" y2="2.213" transform="translate(14.174 45.947)"/><line class="e" x1="5.634" y2="5.634" transform="translate(0 46.395)"/><line class="e" y1="3.614" x2="3.614" transform="translate(39.79 41.83)"/><line class="e" y1="3.614" x2="3.614" transform="translate(12.599 14.639)"/></g></g></g></svg>