<svg xmlns="http://www.w3.org/2000/svg" xmlns:xlink="http://www.w3.org/1999/xlink" viewBox="0 -12 100 112">
  <defs>
    <clipPath id="clip-path">
      <rect id="Rectangle_110" data-name="Rectangle 110" width="99.413" height="61.057" transform="translate(0 0)" fill="none"/>
    </clipPath>
  </defs>
  <g id="Group_12" data-name="Group 12" transform="translate(-2020 -578.552)">
    <path id="Path_24063" data-name="Path 24063" d="M4125,10599a44,44,0,1,0-44-44A44,44,0,0,0,4125,10599Z" transform="translate(-2055 -9932.448)" fill="#f7f9fc"/>
    <g id="Group_8" data-name="Group 8" transform="translate(2020 591.552)">
      <g id="Group_11" data-name="Group 11" clip-path="url(#clip-path)">
        <path id="Path_24037" data-name="Path 24037" d="M94.869,61.056H4.543A4.548,4.548,0,0,1,0,56.512V54.623a1.913,1.913,0,0,1,1.911-1.911H39.775a.451.451,0,0,1,.45.45v1.764a1.024,1.024,0,0,0,1.023,1.023H58.64a1.023,1.023,0,0,0,1.021-1.023V53.162a.451.451,0,0,1,.45-.45H97.5a1.913,1.913,0,0,1,1.911,1.911v1.889a4.549,4.549,0,0,1-4.544,4.544M1.911,53.612A1.011,1.011,0,0,0,.9,54.623v1.889a3.648,3.648,0,0,0,3.643,3.644H94.869a3.649,3.649,0,0,0,3.644-3.644V54.623A1.012,1.012,0,0,0,97.5,53.612H60.561v1.314a1.924,1.924,0,0,1-1.921,1.923H41.248a1.924,1.924,0,0,1-1.923-1.923V53.612Z" fill="#262626"/>
        <path id="Path_24038" data-name="Path 24038" d="M59.89,53.562H39.629a.4.4,0,0,1,0-.8H59.89a.4.4,0,0,1,0,.8" fill="#262626"/>
        <path id="Path_24039" data-name="Path 24039" d="M90.5,53.612a.451.451,0,0,1-.45-.45V1.91A1.011,1.011,0,0,0,89.037.9H10.375a1.011,1.011,0,0,0-1.01,1.01V53.162a.45.45,0,1,1-.9,0V1.91A1.912,1.912,0,0,1,10.375,0H89.037a1.913,1.913,0,0,1,1.911,1.91V53.162a.451.451,0,0,1-.45.45" fill="#262626"/>
        <path id="Path_24040" data-name="Path 24040" d="M84.667,50.076H14.746a2.01,2.01,0,0,1-2.008-2.007V6.255a2.011,2.011,0,0,1,2.008-2.008H84.667a2.011,2.011,0,0,1,2.008,2.008V48.069a2.01,2.01,0,0,1-2.008,2.007M14.746,4.847a1.41,1.41,0,0,0-1.408,1.408V48.069a1.41,1.41,0,0,0,1.408,1.408H84.667a1.41,1.41,0,0,0,1.408-1.408V6.255a1.41,1.41,0,0,0-1.408-1.408Z" fill="#25282a"/>
        <path id="Path_24041" data-name="Path 24041" d="M49.706,3.9A1.355,1.355,0,1,1,51.06,2.546,1.356,1.356,0,0,1,49.706,3.9m0-2.109a.755.755,0,1,0,.755.755.755.755,0,0,0-.755-.755" fill="#25282a"/>
        <path id="Path_24042" data-name="Path 24042" d="M34.939,22.986a.3.3,0,0,1-.154-.557l9.3-5.578a.3.3,0,0,1,.288-.011L55.3,22.3,64.446,9.5a.3.3,0,1,1,.488.349l-9.3,13.016a.3.3,0,0,1-.378.094L44.25,17.45l-9.157,5.493a.3.3,0,0,1-.154.043" fill="#25282a"/>
        <path id="Path_24043" data-name="Path 24043" d="M37.539,45h-5.2a.19.19,0,0,1-.19-.19V35.892a.19.19,0,0,1,.19-.189h5.2a.19.19,0,0,1,.19.189V44.81a.19.19,0,0,1-.19.19" fill="#89aae6"/>
        <path id="Path_24044" data-name="Path 24044" d="M37.539,45.3h-5.2a.49.49,0,0,1-.489-.489V35.893a.489.489,0,0,1,.489-.489h5.2a.489.489,0,0,1,.489.489v8.918a.49.49,0,0,1-.489.489m-5.089-.6h4.979V36H32.45Z" fill="#262626"/>
        <path id="Path_24045" data-name="Path 24045" d="M47.766,45h-5.2a.19.19,0,0,1-.19-.19V28.455a.19.19,0,0,1,.19-.19h5.2a.19.19,0,0,1,.19.19V44.81a.19.19,0,0,1-.19.19" fill="#89aae6"/>
        <path id="Path_24046" data-name="Path 24046" d="M47.767,45.3h-5.2a.49.49,0,0,1-.489-.489V28.455a.491.491,0,0,1,.489-.49h5.2a.491.491,0,0,1,.489.49V44.811a.49.49,0,0,1-.489.489m-5.089-.6h4.979V28.565H42.678Z" fill="#262626"/>
        <path id="Path_24047" data-name="Path 24047" d="M57.993,45h-5.2a.19.19,0,0,1-.19-.19V34.033a.19.19,0,0,1,.19-.19h5.2a.19.19,0,0,1,.19.19V44.81a.19.19,0,0,1-.19.19" fill="#89aae6"/>
        <path id="Path_24048" data-name="Path 24048" d="M57.993,45.3h-5.2a.49.49,0,0,1-.489-.489V34.034a.49.49,0,0,1,.489-.49h5.2a.49.49,0,0,1,.489.49V44.811a.49.49,0,0,1-.489.489M52.9,44.7h4.979V34.144H52.9Z" fill="#262626"/>
        <path id="Path_24049" data-name="Path 24049" d="M36.8,22.687a1.859,1.859,0,1,1-1.859-1.859A1.859,1.859,0,0,1,36.8,22.687" fill="#89aae6"/>
        <path id="Path_24050" data-name="Path 24050" d="M34.939,24.846A2.16,2.16,0,1,1,37.1,22.687a2.162,2.162,0,0,1-2.159,2.159m0-3.719a1.559,1.559,0,1,0,1.56,1.56,1.563,1.563,0,0,0-1.56-1.56" fill="#262626"/>
        <path id="Path_24051" data-name="Path 24051" d="M46.1,17.108a1.86,1.86,0,1,1-1.859-1.859A1.859,1.859,0,0,1,46.1,17.108" fill="#89aae6"/>
        <path id="Path_24052" data-name="Path 24052" d="M44.237,19.268A2.159,2.159,0,1,1,46.4,17.109a2.162,2.162,0,0,1-2.159,2.159m0-3.719a1.559,1.559,0,1,0,1.56,1.56,1.563,1.563,0,0,0-1.56-1.56" fill="#262626"/>
        <path id="Path_24053" data-name="Path 24053" d="M57.253,22.687a1.859,1.859,0,1,1-1.859-1.859,1.859,1.859,0,0,1,1.859,1.859" fill="#89aae6"/>
        <path id="Path_24054" data-name="Path 24054" d="M55.394,24.846a2.16,2.16,0,1,1,2.159-2.159,2.162,2.162,0,0,1-2.159,2.159m0-3.719a1.559,1.559,0,1,0,1.56,1.56,1.563,1.563,0,0,0-1.56-1.56" fill="#262626"/>
        <path id="Path_24055" data-name="Path 24055" d="M66.55,9.671a1.86,1.86,0,1,1-1.859-1.859A1.859,1.859,0,0,1,66.55,9.671" fill="#89aae6"/>
        <path id="Path_24056" data-name="Path 24056" d="M64.69,11.83a2.159,2.159,0,1,1,2.159-2.159A2.162,2.162,0,0,1,64.69,11.83m0-3.719a1.559,1.559,0,1,0,1.56,1.56,1.563,1.563,0,0,0-1.56-1.56" fill="#262626"/>
        <path id="Path_24057" data-name="Path 24057" d="M68.22,45h-5.2a.19.19,0,0,1-.19-.19V24.736a.19.19,0,0,1,.19-.19h5.2a.19.19,0,0,1,.19.19V44.81a.19.19,0,0,1-.19.19" fill="#89aae6"/>
        <path id="Path_24058" data-name="Path 24058" d="M68.22,45.3h-5.2a.491.491,0,0,1-.49-.489V24.736a.491.491,0,0,1,.49-.49h5.2a.491.491,0,0,1,.489.49V44.811a.49.49,0,0,1-.489.489m-5.089-.6H68.11V24.847H63.131Z" fill="#262626"/>
        <path id="Path_24059" data-name="Path 24059" d="M87.986,58.935H79.392a.3.3,0,0,1,0-.6h8.594a.3.3,0,1,1,0,.6" fill="#25282a"/>
        <path id="Path_24060" data-name="Path 24060" d="M93.388,58.935H90.5a.3.3,0,0,1,0-.6h2.89a.3.3,0,1,1,0,.6" fill="#25282a"/>
        <path id="Path_24061" data-name="Path 24061" d="M11.2,13.937a.3.3,0,0,1-.3-.3V8.306a.3.3,0,1,1,.6,0v5.331a.3.3,0,0,1-.3.3" fill="#25282a"/>
        <path id="Path_24062" data-name="Path 24062" d="M11.2,6.5a.3.3,0,0,1-.3-.3V3.845a.3.3,0,0,1,.6,0V6.2a.3.3,0,0,1-.3.3" fill="#25282a"/>
      </g>
    </g>
  </g>
</svg>
