<svg xmlns="http://www.w3.org/2000/svg" width="81" height="81" viewBox="0 0 81 81"><defs><style>.a{fill:#f4f8fd;}.b,.d{fill:none;}.b,.c,.d{stroke:#25282a;stroke-linecap:round;stroke-linejoin:round;}.b,.c{stroke-width:0.7px;}.c{fill:#82abec;}.d{stroke-width:0.4px;}</style></defs><g transform="translate(-18 -18)"><circle class="a" cx="40.5" cy="40.5" r="40.5" transform="translate(18 18)"/><g transform="translate(24.315 27.971)"><path class="b" d="M24.535,86.937H89.814a1.543,1.543,0,0,0,1.345-2.3L58.6,26.665a1.542,1.542,0,0,0-2.688,0L23.191,84.636A1.542,1.542,0,0,0,24.535,86.937Z" transform="translate(-22.99 -25.878)"/><g transform="translate(30.312 20.559)"><path class="c" d="M46.94,72.559a3.745,3.745,0,0,1,3.92-3.726,3.69,3.69,0,0,1,3.822,3.726,3.73,3.73,0,0,1-3.822,3.775A3.784,3.784,0,0,1,46.94,72.559Zm1.242-30.437h5.354a.857.857,0,0,1,.857.9L53.274,63.957a.859.859,0,0,1-.857.813H49.255a.859.859,0,0,1-.857-.815L47.325,43.023A.858.858,0,0,1,48.182,42.122Z" transform="translate(-46.94 -42.122)"/></g><path class="d" d="M50.87,68.344a2.692,2.692,0,0,1-2.788-2.686" transform="translate(-16.324 -15.311)"/><line class="d" x1="1.695" y1="3.018" transform="translate(55.4 43.205)"/><line class="d" x1="3.496" y1="6.226" transform="translate(58.626 48.95)"/></g></g></svg>