<svg xmlns="http://www.w3.org/2000/svg" width="88" height="88" viewBox="0 0 88 88"><defs><style>.a{fill:#f7f9fc;}.b{fill:#f4f8fd;}.c{fill:#82abec;}.d{fill:#25282a;}.e{fill:#262626;}</style></defs><g transform="translate(-465.348 -263)"><g transform="translate(467.435 267.739)"><g transform="translate(0 0)"><path class="a" d="M40,0A40,40,0,1,1,0,40,40,40,0,0,1,40,0Z"/></g></g><g transform="translate(-377.652 -18)"><circle class="b" cx="44" cy="44" r="44" transform="translate(843 281)"/><g transform="translate(-25.487 -633.227)"><g transform="translate(868.487 923.149)"><g transform="translate(0 0)"><g transform="translate(41.638 28)"><path class="c" d="M1153.472,191.2a20.576,20.576,0,0,0-22.339-4.292,26.949,26.949,0,0,1-12.555,20.517,20.542,20.542,0,0,0,32.14,15.417l5.853,1.814a.918.918,0,0,0,1.161-1.1l-1.593-6.2A20.566,20.566,0,0,0,1153.472,191.2Z" transform="translate(-1118.051 -184.8)"/><path class="d" d="M1139.248,227.116a21.022,21.022,0,0,1-21.011-19.5l-.022-.3.258-.164a26.452,26.452,0,0,0,12.32-20.135l.026-.3.282-.117a21.073,21.073,0,0,1,25.75,31l1.536,5.982a1.425,1.425,0,0,1-1.8,1.714l-5.619-1.742A20.974,20.974,0,0,1,1139.248,227.116Zm-19.975-19.271A20.035,20.035,0,0,0,1150.6,222.58l.2-.141,6.088,1.887a.41.41,0,0,0,.52-.493l-1.649-6.421.128-.188a20.06,20.06,0,0,0-24.111-29.809,27.446,27.446,0,0,1-12.5,20.429Z" transform="translate(-1118.215 -184.96)"/></g><g transform="translate(0)"><path class="e" d="M1117.163,221.008a27.567,27.567,0,0,1-15.228-4.576l-7.948,2.04a1.755,1.755,0,0,1-2.111-2.219l2.316-7.476a27.692,27.692,0,1,1,42.747,3.927h0A27.654,27.654,0,0,1,1117.163,221.008Zm-15.128-5.706a.543.543,0,0,1,.3.093,26.587,26.587,0,0,0,33.825-3.452h0a26.607,26.607,0,1,0-40.927-3.562.537.537,0,0,1,.072.468l-2.394,7.726a.658.658,0,0,0,.154.658.647.647,0,0,0,.648.186l8.184-2.1A.519.519,0,0,1,1102.035,215.3Zm34.516-2.978h0Z" transform="translate(-1089.48 -165.637)"/></g><g transform="translate(60.06 66.024)"><path class="e" d="M1132.038,211.878c-.281,0-.561-.01-.842-.029a.29.29,0,0,1-.268-.31.3.3,0,0,1,.309-.268,11.543,11.543,0,0,0,2.271-.065.275.275,0,0,1,.325.249.29.29,0,0,1-.251.325A11.942,11.942,0,0,1,1132.038,211.878Z" transform="translate(-1130.927 -211.2)"/></g><g transform="translate(52.311 62.389)"><path class="e" d="M1131.582,212.652a.241.241,0,0,1-.071-.01,11.948,11.948,0,0,1-5.853-3.462.29.29,0,1,1,.424-.4,11.375,11.375,0,0,0,5.57,3.3.29.29,0,0,1-.071.571Z" transform="translate(-1125.58 -208.692)"/></g><g transform="translate(14.567 17.319)"><path class="e" d="M1102.521,178.17h-2.7a.291.291,0,0,1,0-.581h2.7a.291.291,0,0,1,0,.581Z" transform="translate(-1099.533 -177.589)"/><g transform="translate(4.668)"><path class="e" d="M1106.9,178.17h-3.854a.291.291,0,0,1,0-.581h3.854a.291.291,0,0,1,0,.581Z" transform="translate(-1102.754 -177.589)"/></g><g transform="translate(10.246)"><path class="e" d="M1122.3,178.17h-15.409a.291.291,0,0,1,0-.581H1122.3a.291.291,0,0,1,0,.581Z" transform="translate(-1106.604 -177.589)"/></g><g transform="translate(0 19.177)"><path class="e" d="M1102.521,191.4h-2.7a.291.291,0,0,1,0-.581h2.7a.291.291,0,0,1,0,.581Z" transform="translate(-1099.533 -190.823)"/><g transform="translate(4.668)"><path class="e" d="M1118.378,191.4h-15.334a.291.291,0,0,1,0-.581h15.334a.291.291,0,0,1,0,.581Z" transform="translate(-1102.754 -190.823)"/></g><g transform="translate(21.724)"><path class="e" d="M1118.746,191.4h-3.93a.291.291,0,1,1,0-.581h3.93a.291.291,0,0,1,0,.581Z" transform="translate(-1114.525 -190.823)"/></g></g><g transform="translate(0 9.59)"><path class="e" d="M1111.13,184.787h-11.307a.29.29,0,1,1,0-.58h11.307a.29.29,0,1,1,0,.58Z" transform="translate(-1099.533 -184.207)"/><g transform="translate(13.275)"><path class="e" d="M1114.276,184.787h-5.291a.29.29,0,1,1,0-.58h5.291a.29.29,0,0,1,0,.58Z" transform="translate(-1108.694 -184.207)"/></g><g transform="translate(21.537)"><path class="e" d="M1118.8,184.787h-4.118a.29.29,0,0,1,0-.58h4.118a.29.29,0,0,1,0,.58Z" transform="translate(-1114.396 -184.207)"/></g></g></g></g></g></g></g></g></svg>