<svg xmlns="http://www.w3.org/2000/svg" width="80" height="80" viewBox="0 0 80 80"><defs><style>.a{fill:#f4f8fd;}.b,.c{fill:none;}.b,.c,.d{stroke:#262626;stroke-linecap:round;stroke-linejoin:round;}.b{stroke-width:0.7px;}.c{stroke-width:0.4px;}.d{fill:#82abec;stroke-width:0.75px;}</style></defs><g transform="translate(-185 -173)"><g transform="translate(185 173)"><circle class="a" cx="40" cy="40" r="40"/><g transform="translate(-705 -588)"><g transform="translate(714 597)"><g transform="translate(0 0)"><circle class="b" cx="31" cy="31" r="31" transform="translate(0 0)"/><circle class="c" cx="26.464" cy="26.464" r="26.464" transform="translate(4.493 4.493)"/><path class="c" d="M615.368,173.113a28.361,28.361,0,0,1-3.31-1.042" transform="translate(-591.345 -114.39)"/><path class="c" d="M632.412,132.966a28.8,28.8,0,0,1,6.8,6.44" transform="translate(-585.445 -125.726)"/><path class="c" d="M628.248,130.755a28.651,28.651,0,0,1,3.8,1.86" transform="translate(-586.652 -126.367)"/><path class="c" d="M624.744,129.68q1.347.294,2.647.712" transform="translate(-587.668 -126.679)"/><path class="c" d="M611,172.391a28.734,28.734,0,0,1-8.836-7.85" transform="translate(-594.214 -116.573)"/></g><g transform="translate(5.106 5.106)"><g transform="translate(11.608 4.278)"><line class="c" x2="1.659" y2="2.513"/><line class="c" x2="1.659" y2="2.513" transform="translate(26.827 40.633)"/></g><g transform="translate(2.957 13.846)"><line class="c" x2="2.667" y2="1.399"/><line class="c" x2="2.667" y2="1.399" transform="translate(43.122 22.611)"/></g><g transform="translate(4.278 11.608)"><line class="c" y1="1.659" x2="2.513" transform="translate(0 26.827)"/><line class="c" y1="1.659" x2="2.513" transform="translate(40.633)"/></g><g transform="translate(13.846 2.957)"><line class="c" y1="2.667" x2="1.399" transform="translate(0 43.122)"/><line class="c" y1="2.667" x2="1.399" transform="translate(22.611)"/></g><g transform="translate(25.851)"><line class="c" y2="3.012"/><line class="c" y2="3.012" transform="translate(0 48.69)"/></g><g transform="translate(0 25.851)"><line class="c" x2="3.012"/><line class="c" x2="3.012" transform="translate(48.69 0)"/></g></g><g transform="translate(14.711 21.907)"><circle class="d" cx="2.326" cy="2.326" r="2.326" transform="translate(13.92 6.724)"/><line class="b" x2="9.552" transform="translate(18.562 9.05)"/><line class="b" x1="14.085" y1="7.846"/></g></g></g></g></g></svg>