<svg xmlns="http://www.w3.org/2000/svg" width="64" height="64" viewBox="0 0 64 64"><defs><style>.a{fill:#f4f8fd;}.b,.c{fill:none;}.b,.d{stroke:#25282a;stroke-width:0.7px;}.b,.c,.d{stroke-linecap:round;stroke-linejoin:round;}.c{stroke:#262626;stroke-width:0.4px;}.d{fill:#82abec;}</style></defs><g transform="translate(-18 -18)"><circle class="a" cx="32" cy="32" r="32" transform="translate(18 18)"/><circle class="b" cx="26.854" cy="26.854" r="26.854" transform="translate(23.146 23.146)"/><path class="c" d="M61.547,70.292a20.4,20.4,0,0,0,3.22-2.457"/><path class="c" d="M46.841,72.922a20.267,20.267,0,0,0,11.5-1.021"/><path class="d" d="M68.453,39.837l-2.014-2.5a1.29,1.29,0,0,0-1.815-.194l-22.082,17.8a.9.9,0,0,1-1.264-.135L35.9,47.682a1.047,1.047,0,0,0-1.471-.158l-2.881,2.323a1.046,1.046,0,0,0-.158,1.471l8.969,11.588a.9.9,0,0,0,1.263.137L68.256,41.654A1.291,1.291,0,0,0,68.453,39.837Z"/><line class="c" y1="4.652" x2="5.793" transform="translate(60.738 40.919)"/></g></svg>