<svg xmlns="http://www.w3.org/2000/svg" width="80" height="80" viewBox="0 0 80 80"><defs><style>.a{fill:#f7f9fc;}.b{fill:#82abec;}.c{fill:#25282a;}</style></defs><g transform="translate(-851.574 -1912.704)"><path class="a" d="M40,0A40,40,0,1,1,0,40,40,40,0,0,1,40,0Z" transform="translate(851.574 1912.704)"/><g transform="translate(984.877 1774.219)"><g transform="translate(-63.203 179.734)"><path class="b" d="M-73,186.875h2.1a1.754,1.754,0,0,0,1.754-1.753v-9.1a1.754,1.754,0,0,0-1.754-1.753H-73" transform="translate(73.003 -174.027)"/><path class="c" d="M-70.9,187.148H-73v-.473h2.1a1.517,1.517,0,0,0,1.516-1.516v-9.1a1.518,1.518,0,0,0-1.516-1.518H-73v-.474h2.1a1.993,1.993,0,0,1,1.99,1.992v9.1A1.991,1.991,0,0,1-70.9,187.148Z" transform="translate(73.003 -174.064)"/></g><g transform="translate(-63.203 195.681)"><path class="b" d="M-73,200.368h2.1a1.754,1.754,0,0,0,1.754-1.754v-9.1a1.754,1.754,0,0,0-1.754-1.754H-73" transform="translate(73.003 -187.521)"/><path class="c" d="M-70.9,200.641H-73v-.474h2.1a1.517,1.517,0,0,0,1.516-1.516v-9.1a1.517,1.517,0,0,0-1.516-1.516H-73v-.474h2.1a1.992,1.992,0,0,1,1.99,1.99v9.1A1.992,1.992,0,0,1-70.9,200.641Z" transform="translate(73.003 -187.557)"/></g><g transform="translate(-122.771 142.897)"><path class="c" d="M-66.008,213.613h-54.559a2.839,2.839,0,0,1-2.835-2.837V145.735a2.839,2.839,0,0,1,2.835-2.838h54.559a2.84,2.84,0,0,1,2.837,2.838v65.042A2.84,2.84,0,0,1-66.008,213.613Zm-54.559-69.89a2.013,2.013,0,0,0-2.009,2.012v65.042a2.013,2.013,0,0,0,2.009,2.01h54.559A2.012,2.012,0,0,0-64,210.776V145.735a2.013,2.013,0,0,0-2.009-2.012Z" transform="translate(123.403 -142.897)"/></g><g transform="translate(-126.877 151.364)"><g transform="translate(7.836)"><path class="c" d="M-117.548,155.462a2.7,2.7,0,0,1-2.7-2.7,2.7,2.7,0,0,1,2.7-2.7,2.7,2.7,0,0,1,2.7,2.7A2.7,2.7,0,0,1-117.548,155.462Zm0-4.575a1.875,1.875,0,0,0-1.873,1.873,1.876,1.876,0,0,0,1.873,1.875,1.877,1.877,0,0,0,1.875-1.875A1.876,1.876,0,0,0-117.548,150.887Z" transform="translate(120.247 -150.061)"/></g><g transform="translate(7.836 48.382)"><path class="c" d="M-117.548,196.4a2.7,2.7,0,0,1-2.7-2.7,2.7,2.7,0,0,1,2.7-2.7,2.7,2.7,0,0,1,2.7,2.7A2.7,2.7,0,0,1-117.548,196.4Zm0-4.574a1.876,1.876,0,0,0-1.873,1.875,1.875,1.875,0,0,0,1.873,1.873,1.876,1.876,0,0,0,1.875-1.873A1.877,1.877,0,0,0-117.548,191.822Z" transform="translate(120.247 -190.996)"/></g><g transform="translate(7.836 32.253)"><path class="c" d="M-117.548,182.753a2.7,2.7,0,0,1-2.7-2.7,2.7,2.7,0,0,1,2.7-2.7,2.7,2.7,0,0,1,2.7,2.7A2.7,2.7,0,0,1-117.548,182.753Zm0-4.575a1.875,1.875,0,0,0-1.873,1.873,1.876,1.876,0,0,0,1.873,1.875,1.877,1.877,0,0,0,1.875-1.875A1.876,1.876,0,0,0-117.548,178.177Z" transform="translate(120.247 -177.35)"/></g><g transform="translate(7.836 16.127)"><path class="c" d="M-117.548,169.107a2.7,2.7,0,0,1-2.7-2.7,2.7,2.7,0,0,1,2.7-2.7,2.7,2.7,0,0,1,2.7,2.7A2.7,2.7,0,0,1-117.548,169.107Zm0-4.575a1.876,1.876,0,0,0-1.873,1.874,1.876,1.876,0,0,0,1.873,1.875,1.877,1.877,0,0,0,1.875-1.875A1.877,1.877,0,0,0-117.548,164.532Z" transform="translate(120.247 -163.706)"/></g><g transform="translate(0 2.287)"><path class="c" d="M-118.628,152.822h-7.835a.413.413,0,0,1-.414-.414.412.412,0,0,1,.414-.412h7.835a.412.412,0,0,1,.414.412A.413.413,0,0,1-118.628,152.822Z" transform="translate(126.877 -151.996)"/></g><g transform="translate(0 18.454)"><path class="c" d="M-118.628,166.5h-7.835a.413.413,0,0,1-.414-.414.412.412,0,0,1,.414-.412h7.835a.412.412,0,0,1,.414.412A.413.413,0,0,1-118.628,166.5Z" transform="translate(126.877 -165.675)"/></g><g transform="translate(0 34.619)"><path class="c" d="M-118.628,180.178h-7.835a.412.412,0,0,1-.414-.412.413.413,0,0,1,.414-.414h7.835a.413.413,0,0,1,.414.414A.412.412,0,0,1-118.628,180.178Z" transform="translate(126.877 -179.352)"/></g><g transform="translate(0 50.786)"><path class="c" d="M-118.628,193.856h-7.835a.412.412,0,0,1-.414-.412.413.413,0,0,1,.414-.414h7.835a.413.413,0,0,1,.414.414A.412.412,0,0,1-118.628,193.856Z" transform="translate(126.877 -193.03)"/></g></g><g transform="translate(-106.625 156.204)"><path class="c" d="M-78.347,168.347H-108.8a.938.938,0,0,1-.937-.936V155.093a.937.937,0,0,1,.937-.937h30.458a.937.937,0,0,1,.937.937v12.318A.938.938,0,0,1-78.347,168.347ZM-108.8,154.629a.465.465,0,0,0-.464.464v12.318a.463.463,0,0,0,.464.462h30.458a.463.463,0,0,0,.464-.462V155.093a.465.465,0,0,0-.464-.464Z" transform="translate(109.742 -154.156)"/><g transform="translate(0 19.575)"><path class="c" d="M-78.347,175.918H-108.8a.938.938,0,0,1-.937-.937v-3.327a.938.938,0,0,1,.937-.936h30.458a.938.938,0,0,1,.937.936v3.327A.938.938,0,0,1-78.347,175.918Zm-30.458-4.726a.464.464,0,0,0-.464.462v3.327a.464.464,0,0,0,.464.463h30.458a.464.464,0,0,0,.464-.463v-3.327a.464.464,0,0,0-.464-.462Z" transform="translate(109.742 -170.718)"/></g><g transform="translate(8.204 21.937)"><path class="c" d="M-98.513,173.191h-4.052a.237.237,0,0,1-.236-.236.237.237,0,0,1,.236-.238h4.052a.237.237,0,0,1,.236.238A.237.237,0,0,1-98.513,173.191Z" transform="translate(102.801 -172.717)"/><g transform="translate(6.829)"><path class="c" d="M-88.163,173.191h-8.622a.237.237,0,0,1-.238-.236.238.238,0,0,1,.238-.238h8.622a.237.237,0,0,1,.236.238A.237.237,0,0,1-88.163,173.191Z" transform="translate(97.023 -172.717)"/></g></g><g transform="translate(7.022 5.749)"><path class="c" d="M-101.691,159.494h-1.873a.237.237,0,0,1-.236-.238.237.237,0,0,1,.236-.236h1.873a.236.236,0,0,1,.236.236A.237.237,0,0,1-101.691,159.494Z" transform="translate(103.801 -159.02)"/><g transform="translate(3.241)"><path class="c" d="M-98.144,159.494h-2.677a.238.238,0,0,1-.238-.238.237.237,0,0,1,.238-.236h2.677a.236.236,0,0,1,.236.236A.237.237,0,0,1-98.144,159.494Z" transform="translate(101.059 -159.02)"/></g><g transform="translate(7.116)"><path class="c" d="M-86.844,159.494h-10.7a.237.237,0,0,1-.236-.238.236.236,0,0,1,.236-.236h10.7a.237.237,0,0,1,.236.236A.237.237,0,0,1-86.844,159.494Z" transform="translate(97.78 -159.02)"/></g><g transform="translate(0 2.22)"><path class="c" d="M-93.72,161.372h-9.844a.237.237,0,0,1-.236-.238.237.237,0,0,1,.236-.236h9.844a.237.237,0,0,1,.238.236A.238.238,0,0,1-93.72,161.372Z" transform="translate(103.801 -160.898)"/></g><g transform="translate(11.212 2.22)"><path class="c" d="M-87.707,161.372h-6.37a.238.238,0,0,1-.238-.238.237.237,0,0,1,.238-.236h6.37a.236.236,0,0,1,.236.236A.237.237,0,0,1-87.707,161.372Z" transform="translate(94.315 -160.898)"/></g></g></g><g transform="translate(-84.743 210.671)"><path class="c" d="M-89.53,200.713H-90.99a.237.237,0,0,1-.238-.236.237.237,0,0,1,.238-.236h1.461a.237.237,0,0,1,.236.236A.236.236,0,0,1-89.53,200.713Z" transform="translate(91.228 -200.24)"/></g><g transform="translate(-81.187 210.671)"><path class="c" d="M-84.331,200.713h-3.652a.236.236,0,0,1-.236-.236.237.237,0,0,1,.236-.236h3.652a.236.236,0,0,1,.236.236A.236.236,0,0,1-84.331,200.713Z" transform="translate(88.219 -200.24)"/></g><g transform="translate(-75.55 210.671)"><path class="c" d="M-75.224,200.713h-7.99a.236.236,0,0,1-.236-.236.237.237,0,0,1,.236-.236h7.99a.237.237,0,0,1,.236.236A.236.236,0,0,1-75.224,200.713Z" transform="translate(83.45 -200.24)"/></g><g transform="translate(-61.509 184.724)"><path class="c" d="M-71.334,181.392a.236.236,0,0,1-.236-.236v-2.633a.236.236,0,0,1,.236-.236.237.237,0,0,1,.236.236v2.633A.237.237,0,0,1-71.334,181.392Z" transform="translate(71.57 -178.286)"/></g><g transform="translate(-61.509 200.67)"><path class="c" d="M-71.334,194.884a.236.236,0,0,1-.236-.236v-2.633a.236.236,0,0,1,.236-.236.237.237,0,0,1,.236.236v2.633A.237.237,0,0,1-71.334,194.884Z" transform="translate(71.57 -191.778)"/></g></g></g></svg>