<svg xmlns="http://www.w3.org/2000/svg" width="88" height="88" viewBox="0 0 88 88"><defs><style>.a{fill:#f7f9fc;}.b{fill:#f4f8fd;}.c{fill:#262626;}.d{fill:#82abec;}.e{fill:#25282a;}.f{fill:#eeeeef;}</style></defs><g transform="translate(-465.348 -263)"><g transform="translate(467.435 267.739)"><g transform="translate(0 0)"><path class="a" d="M40,0A40,40,0,1,1,0,40,40,40,0,0,1,40,0Z"/></g></g><g transform="translate(-377.652 -18)"><circle class="b" cx="44" cy="44" r="44" transform="translate(843 281)"/><g transform="translate(-86.38 131.033)"><g transform="translate(943.659 153.752)"><path class="c" d="M1000.2,231.556H945.889a2.233,2.233,0,0,1-2.23-2.231V155.909a2.159,2.159,0,0,1,2.156-2.157h41.617a.45.45,0,0,1,.321.135l14.551,14.8a.45.45,0,0,1,.128.314v60.325A2.232,2.232,0,0,1,1000.2,231.556Zm-54.389-76.9a1.259,1.259,0,0,0-1.258,1.258v73.416a1.334,1.334,0,0,0,1.332,1.333H1000.2a1.334,1.334,0,0,0,1.332-1.333V169.184l-14.291-14.532Z" transform="translate(-943.659 -153.752)"/><g transform="translate(43.325)"><path class="c" d="M992.054,169.634H977.871a.448.448,0,0,1-.448-.449V154.2a.449.449,0,1,1,.9,0v14.533h13.734a.449.449,0,0,1,0,.9Z" transform="translate(-977.423 -153.752)"/></g></g><g transform="translate(952.173 173.998)"><circle class="d" cx="5.431" cy="5.431" r="5.431" transform="translate(0.257 0.257)"/><path class="e" d="M955.981,180.905a5.688,5.688,0,1,1,5.688-5.688A5.694,5.694,0,0,1,955.981,180.905Zm0-10.862a5.174,5.174,0,1,0,5.174,5.174A5.18,5.18,0,0,0,955.981,170.043Z" transform="translate(-950.294 -169.53)"/><g transform="translate(0 15.882)"><circle class="f" cx="5.431" cy="5.431" r="5.431" transform="translate(0.257 0.256)"/><path class="e" d="M955.981,193.281a5.687,5.687,0,1,1,5.688-5.687A5.693,5.693,0,0,1,955.981,193.281Zm0-10.861a5.174,5.174,0,1,0,5.174,5.174A5.18,5.18,0,0,0,955.981,182.42Z" transform="translate(-950.294 -181.907)"/></g><g transform="translate(0 31.762)"><circle class="f" cx="5.431" cy="5.431" r="5.431" transform="translate(0.257 0.257)"/><path class="e" d="M955.981,205.658a5.688,5.688,0,1,1,5.688-5.688A5.694,5.694,0,0,1,955.981,205.658Zm0-10.861a5.174,5.174,0,1,0,5.174,5.172A5.179,5.179,0,0,0,955.981,194.8Z" transform="translate(-950.294 -194.283)"/></g><g transform="translate(3.428 16.993)"><path class="c" d="M955.224,188.744a.261.261,0,0,1-.044,0,.253.253,0,0,1-.169-.112l-2-3.008a.256.256,0,1,1,.427-.284l1.852,2.781,7.056-5.293a.257.257,0,1,1,.308.411l-7.273,5.457A.258.258,0,0,1,955.224,188.744Z" transform="translate(-952.966 -182.773)"/></g><g transform="translate(3.428 32.874)"><path class="c" d="M955.224,201.12a.26.26,0,0,1-.044,0,.251.251,0,0,1-.169-.11l-2-3.008a.257.257,0,0,1,.427-.285l1.852,2.782,7.056-5.294a.257.257,0,0,1,.308.412l-7.273,5.456A.258.258,0,0,1,955.224,201.12Z" transform="translate(-952.966 -195.149)"/></g><g transform="translate(15.195 3.974)"><path class="c" d="M969.5,173.142h-7.106a.257.257,0,0,1,0-.515H969.5a.257.257,0,0,1,0,.515Z" transform="translate(-962.136 -172.627)"/></g><g transform="translate(24.301 3.974)"><path class="c" d="M973.4,173.142H969.49a.257.257,0,1,1,0-.515H973.4a.257.257,0,1,1,0,.515Z" transform="translate(-969.232 -172.627)"/></g><g transform="translate(29.963 3.974)"><path class="c" d="M985.172,173.142H973.9a.257.257,0,0,1,0-.515h11.27a.257.257,0,0,1,0,.515Z" transform="translate(-973.645 -172.627)"/></g><g transform="translate(15.195 7.218)"><path class="c" d="M973.868,175.67H962.393a.257.257,0,0,1,0-.515h11.475a.257.257,0,0,1,0,.515Z" transform="translate(-962.136 -175.155)"/></g><g transform="translate(28.67 7.218)"><path class="c" d="M976.807,175.67h-3.914a.257.257,0,0,1,0-.515h3.914a.257.257,0,0,1,0,.515Z" transform="translate(-972.637 -175.155)"/></g><g transform="translate(15.195 19.352)"><path class="c" d="M965.131,185.126h-2.738a.257.257,0,0,1,0-.515h2.738a.257.257,0,0,1,0,.515Z" transform="translate(-962.136 -184.611)"/></g><g transform="translate(19.932 19.352)"><path class="c" d="M970,185.126h-3.914a.257.257,0,0,1,0-.515H970a.257.257,0,0,1,0,.515Z" transform="translate(-965.827 -184.611)"/></g><g transform="translate(25.594 19.352)"><path class="c" d="M986.136,185.126H970.5a.257.257,0,0,1,0-.515h15.639a.257.257,0,0,1,0,.515Z" transform="translate(-970.24 -184.611)"/></g><g transform="translate(15.195 22.597)"><path class="c" d="M976.781,187.653H962.393a.257.257,0,0,1,0-.513h14.388a.257.257,0,1,1,0,.513Z" transform="translate(-962.136 -187.14)"/></g><g transform="translate(31.582 22.597)"><path class="c" d="M979.076,187.653h-3.914a.257.257,0,1,1,0-.513h3.914a.257.257,0,1,1,0,.513Z" transform="translate(-974.906 -187.14)"/></g><g transform="translate(15.195 35.871)"><path class="c" d="M975.325,198H962.393a.257.257,0,0,1,0-.513h12.932a.257.257,0,1,1,0,.513Z" transform="translate(-962.136 -197.485)"/></g><g transform="translate(30.125 35.871)"><path class="c" d="M977.941,198h-3.912a.257.257,0,1,1,0-.513h3.912a.257.257,0,1,1,0,.513Z" transform="translate(-973.771 -197.485)"/></g><g transform="translate(35.789 35.871)"><path class="c" d="M983.886,198h-5.445a.257.257,0,1,1,0-.513h5.445a.257.257,0,1,1,0,.513Z" transform="translate(-978.185 -197.485)"/></g><g transform="translate(15.195 39.115)"><path class="c" d="M966.586,200.528h-4.193a.257.257,0,0,1,0-.515h4.193a.257.257,0,1,1,0,.515Z" transform="translate(-962.136 -200.013)"/></g><g transform="translate(21.388 39.115)"><path class="c" d="M978.414,200.528h-11.2a.257.257,0,0,1,0-.515h11.2a.257.257,0,0,1,0,.515Z" transform="translate(-966.962 -200.013)"/></g></g></g></g></g></svg>