<svg xmlns="http://www.w3.org/2000/svg" width="87.398" height="83.917" viewBox="0 0 87.398 83.917"><defs><style>.a{fill:#ffa007;}.b{fill:#82abec;}.c{fill:#25282a;}.d{fill:#262626;}</style></defs><g transform="translate(0)"><g transform="translate(-1001.083 -152.657)"><g transform="translate(1034.969 153.117)"><path class="a" d="M1037.9,153.614l2.53,5.125,5.657.823a1.088,1.088,0,0,1,.6,1.856l-4.093,3.989.966,5.635a1.088,1.088,0,0,1-1.578,1.146l-5.059-2.66-5.061,2.66a1.088,1.088,0,0,1-1.578-1.146l.966-5.635-4.093-3.989a1.088,1.088,0,0,1,.6-1.856l5.657-.823,2.53-5.125A1.088,1.088,0,0,1,1037.9,153.614Z" transform="translate(-1026.828 -153.007)"/></g><g transform="translate(1001.543 170.223)"><path class="a" d="M1004.513,167.748l5.244,1.778,4.437-3.312a1.054,1.054,0,0,1,1.685.858l-.071,5.536,4.521,3.2a1.053,1.053,0,0,1-.3,1.866l-5.287,1.644L1013.1,184.6a1.053,1.053,0,0,1-1.866.3l-3.2-4.521-5.536.071a1.054,1.054,0,0,1-.858-1.685l3.312-4.437-1.778-5.244A1.054,1.054,0,0,1,1004.513,167.748Z" transform="translate(-1001.432 -166.003)"/></g><g transform="translate(1068.679 170.223)"><path class="a" d="M1068.7,167.748l-5.244,1.778-4.437-3.312a1.054,1.054,0,0,0-1.685.858l.071,5.536-4.52,3.2a1.054,1.054,0,0,0,.295,1.866l5.287,1.644,1.644,5.287a1.053,1.053,0,0,0,1.866.3l3.2-4.521,5.537.071a1.055,1.055,0,0,0,.858-1.685l-3.312-4.437,1.778-5.244A1.054,1.054,0,0,0,1068.7,167.748Z" transform="translate(-1052.44 -166.003)"/></g><g transform="translate(1001.082 152.657)"><g transform="translate(33.426)"><path class="b" d="M1037.9,153.614l2.53,5.125,5.657.823a1.088,1.088,0,0,1,.6,1.856l-4.093,3.989.966,5.635a1.088,1.088,0,0,1-1.578,1.146l-5.059-2.66-5.061,2.66a1.088,1.088,0,0,1-1.578-1.146l.966-5.635-4.093-3.989a1.088,1.088,0,0,1,.6-1.856l5.657-.823,2.53-5.125A1.088,1.088,0,0,1,1037.9,153.614Z" transform="translate(-1026.368 -152.546)"/><path class="c" d="M1031.468,172.887a1.552,1.552,0,0,1-1.526-1.814l.925-5.4-3.92-3.821a1.548,1.548,0,0,1,.857-2.64l5.419-.788,2.423-4.908a1.539,1.539,0,0,1,1.387-.863h0a1.539,1.539,0,0,1,1.389.863l2.423,4.908,5.417.788a1.548,1.548,0,0,1,.857,2.64l-3.918,3.821.924,5.4a1.548,1.548,0,0,1-2.247,1.632l-4.845-2.547-4.846,2.547A1.553,1.553,0,0,1,1031.468,172.887Zm5.567-3.768,5.274,2.773a.627.627,0,0,0,.91-.661l-1.006-5.874,4.266-4.159a.627.627,0,0,0-.349-1.07l-5.9-.857-2.636-5.342a.616.616,0,0,0-.563-.35h0a.611.611,0,0,0-.561.35l-2.639,5.342-5.9.857a.628.628,0,0,0-.349,1.07l4.267,4.159-1.007,5.873a.627.627,0,0,0,.909.662Z" transform="translate(-1026.478 -152.657)"/></g><g transform="translate(39.667 26.777)"><path class="d" d="M1035.375,230.141a.47.47,0,0,1-.288-.1c-.035-.029-.079-.065-.146-.392h-.025l.007-.095c-.321-1.753-1.126-10.174-3.7-52.658a4.064,4.064,0,0,1,4.316-3.892,3.918,3.918,0,0,1,4.2,3.866l-3.9,52.847a.464.464,0,0,1-.459.428Zm.161-56.219a3.126,3.126,0,0,0-3.4,2.961c.958,15.788,2.372,37.864,3.154,47.646l3.523-47.7A2.99,2.99,0,0,0,1035.536,173.922Z" transform="translate(-1031.22 -173.001)"/></g><g transform="translate(41.903 32.134)"><path class="d" d="M1033.527,183.24a.261.261,0,0,1-.262-.247c-.213-3.452-.346-5.641-.346-5.641a.262.262,0,1,1,.524-.032s.133,2.188.346,5.64a.261.261,0,0,1-.245.279Z" transform="translate(-1032.919 -177.072)"/></g><g transform="translate(42.4 40.22)"><path class="d" d="M1033.745,186.688a.261.261,0,0,1-.262-.246l-.186-2.948a.262.262,0,0,1,.245-.279.255.255,0,0,1,.279.246l.186,2.948a.262.262,0,0,1-.246.279Z" transform="translate(-1033.297 -183.215)"/></g><g transform="translate(0 17.106)"><path class="b" d="M1004.513,167.748l5.244,1.778,4.437-3.312a1.054,1.054,0,0,1,1.685.858l-.071,5.536,4.521,3.2a1.053,1.053,0,0,1-.3,1.866l-5.287,1.644L1013.1,184.6a1.053,1.053,0,0,1-1.866.3l-3.2-4.521-5.536.071a1.054,1.054,0,0,1-.858-1.685l3.312-4.437-1.778-5.244A1.054,1.054,0,0,1,1004.513,167.748Z" transform="translate(-1000.972 -165.543)"/><path class="c" d="M1012.2,185.916a1.5,1.5,0,0,1-1.232-.64l-3.057-4.322-5.294.067a1.573,1.573,0,0,1-1.369-.828,1.5,1.5,0,0,1,.137-1.593l3.166-4.243-1.7-5.013a1.514,1.514,0,0,1,1.92-1.922l5.013,1.7,4.243-3.167a1.515,1.515,0,0,1,2.421,1.233l-.067,5.294,4.323,3.059a1.514,1.514,0,0,1-.425,2.682l-5.057,1.572-1.571,5.056a1.5,1.5,0,0,1-1.208,1.046A1.681,1.681,0,0,1,1012.2,185.916Zm-3.816-5.89,3.337,4.719a.593.593,0,0,0,1.05-.166l1.716-5.52,5.519-1.715a.594.594,0,0,0,.166-1.05l-4.719-3.337.075-5.778a.6.6,0,0,0-.95-.484l-4.632,3.456-5.471-1.856a.594.594,0,0,0-.753.753l1.856,5.473-3.456,4.632a.593.593,0,0,0,.474.948h.009Z" transform="translate(-1001.083 -165.654)"/><g transform="translate(17.692 17.903)"><path class="d" d="M1034.67,225.107c-.338,0-.425-.324-1.2-3.168-1.5-5.516-4.6-17-8.67-23.719a106.069,106.069,0,0,0-9.321-12.521,3.619,3.619,0,0,1,.3-5.2,3.5,3.5,0,0,1,5.149-.212c.126.095,4.072,3.281,7.493,12.585,3.062,8.324,6.751,31.461,6.788,31.694a.461.461,0,0,1-.4.529A1.214,1.214,0,0,1,1034.67,225.107Zm-16.2-44.931a2.857,2.857,0,0,0-2.032.974,2.7,2.7,0,0,0-.272,3.931,106.812,106.812,0,0,1,9.428,12.66c3.059,5.061,5.57,12.713,7.28,18.6-1.355-7.512-3.454-18.11-5.308-23.155-3.319-9.026-7.2-12.185-7.239-12.216A2.821,2.821,0,0,0,1018.471,180.176Z" transform="translate(-1014.524 -179.256)"/></g><g transform="translate(23.875 23.113)"><path class="d" d="M1022.873,188.5a.266.266,0,0,1-.234-.142,14.9,14.9,0,0,0-3.313-4.669.264.264,0,0,1,.319-.42c.063.049,1.583,1.227,3.463,4.845a.263.263,0,0,1-.113.355A.266.266,0,0,1,1022.873,188.5Z" transform="translate(-1019.222 -183.214)"/></g><g transform="translate(15.363 9.674)"><path class="d" d="M1014.049,174.26a.261.261,0,0,1-.151-.05l-1.031-.728a.263.263,0,1,1,.3-.429l1.032.728a.264.264,0,0,1-.153.479Z" transform="translate(-1012.755 -173.004)"/></g></g><g transform="translate(49.008 17.106)"><g transform="translate(18.127)"><path class="b" d="M1068.7,167.748l-5.244,1.778-4.437-3.312a1.054,1.054,0,0,0-1.685.858l.071,5.536-4.52,3.2a1.054,1.054,0,0,0,.295,1.866l5.287,1.644,1.644,5.287a1.053,1.053,0,0,0,1.866.3l3.2-4.521,5.537.071a1.055,1.055,0,0,0,.858-1.685l-3.312-4.437,1.778-5.244A1.054,1.054,0,0,0,1068.7,167.748Z" transform="translate(-1051.979 -165.543)"/><path class="c" d="M1061.233,185.916a1.661,1.661,0,0,1-.241-.018,1.5,1.5,0,0,1-1.208-1.046l-1.572-5.056-5.057-1.573a1.513,1.513,0,0,1-.425-2.681l4.322-3.059-.066-5.294a1.513,1.513,0,0,1,2.418-1.233l4.245,3.167,5.015-1.7a1.515,1.515,0,0,1,1.92,1.922l-1.7,5.013,3.165,4.243a1.5,1.5,0,0,1,.134,1.594,1.54,1.54,0,0,1-1.368.827l-5.294-.067-3.056,4.322A1.507,1.507,0,0,1,1061.233,185.916Zm-2.73-19.34a.592.592,0,0,0-.271.066.584.584,0,0,0-.325.537l.074,5.778-4.719,3.337a.593.593,0,0,0,.166,1.05l5.52,1.715,1.715,5.519a.582.582,0,0,0,.474.411.589.589,0,0,0,.578-.243l3.337-4.719,5.778.074a.546.546,0,0,0,.536-.324.586.586,0,0,0-.053-.625l-3.456-4.63,1.857-5.473a.6.6,0,0,0-.754-.753l-5.471,1.856-4.633-3.456A.586.586,0,0,0,1058.5,166.575Z" transform="translate(-1052.09 -165.654)"/></g><g transform="translate(0 17.905)"><path class="d" d="M1038.87,225.107a1.182,1.182,0,0,1-.143-.012.456.456,0,0,1-.315-.179.464.464,0,0,1-.09-.35c.038-.233,3.726-23.37,6.789-31.694,3.42-9.3,7.365-12.491,7.531-12.622h0a3.91,3.91,0,0,1,1.523-.858,3.49,3.49,0,0,1,3.587,1.107,3.622,3.622,0,0,1,.3,5.211,105.805,105.805,0,0,0-9.313,12.51c-4.067,6.726-7.177,18.21-8.671,23.727C1039.3,224.783,1039.207,225.107,1038.87,225.107Zm16.193-44.934a2.747,2.747,0,0,0-1.811.766c-.078.064-3.959,3.223-7.277,12.25-1.855,5.045-3.951,15.638-5.307,23.149,1.708-5.887,4.22-13.536,7.279-18.6a106.853,106.853,0,0,1,9.418-12.651,2.7,2.7,0,0,0-.263-3.941A2.874,2.874,0,0,0,1055.063,180.173Z" transform="translate(-1038.317 -179.258)"/></g><g transform="translate(8.176 28.005)"><path class="d" d="M1044.792,192.825a.247.247,0,0,1-.068-.011.263.263,0,0,1-.186-.322c1.068-3.934,2.3-5.41,2.352-5.47a.264.264,0,0,1,.4.342,14.93,14.93,0,0,0-2.244,5.266A.267.267,0,0,1,1044.792,192.825Z" transform="translate(-1044.529 -186.931)"/></g><g transform="translate(26.046 12.929)"><path class="d" d="M1059.533,179.7a.26.26,0,0,1-.25-.184l-1.165-3.7a.264.264,0,0,1,.172-.33.261.261,0,0,1,.329.172l1.165,3.7a.264.264,0,0,1-.172.33A.235.235,0,0,1,1059.533,179.7Z" transform="translate(-1058.106 -175.477)"/></g></g><g transform="translate(47.925 13.81)"><path class="d" d="M1038.1,165.679a.263.263,0,0,1-.259-.22l-.344-2a.264.264,0,0,1,.52-.09l.342,2a.263.263,0,0,1-.215.3A.254.254,0,0,1,1038.1,165.679Z" transform="translate(-1037.494 -163.149)"/></g></g></g></g></svg>