<svg xmlns="http://www.w3.org/2000/svg" width="103.933" height="100" viewBox="0 0 103.933 100"><defs><style>.a{fill:#f4f8fd;}.b{fill:#82abec;}.c{fill:#262626;}.d{fill:#25282a;}</style></defs><g transform="translate(-779.336 -271)"><circle class="a" cx="50" cy="50" r="50" transform="translate(782 271)"/><g transform="translate(472.847 87.119)"><g transform="translate(358.007 227.92)"><path class="b" d="M374.337,217.272a25.471,25.471,0,0,0-27.65-5.312,33.366,33.366,0,0,1-15.54,25.4,25.425,25.425,0,0,0,39.781,19.081l7.245,2.245a1.136,1.136,0,0,0,1.436-1.366l-1.971-7.674A25.456,25.456,0,0,0,374.337,217.272Z" transform="translate(-330.351 -209.189)"/><path class="c" d="M356.949,262.127a26.188,26.188,0,0,1-26.175-24.287.793.793,0,0,1,.369-.73,32.582,32.582,0,0,0,15.171-24.794.8.8,0,0,1,.486-.664,26.231,26.231,0,0,1,28.515,5.48h0a26.237,26.237,0,0,1,3.6,33.081l1.882,7.332a1.932,1.932,0,0,1-2.442,2.325l-6.88-2.134A26.143,26.143,0,0,1,356.949,262.127ZM332.4,238.192a24.628,24.628,0,0,0,38.5,18.016.809.809,0,0,1,.687-.106l7.245,2.247a.319.319,0,0,0,.335-.078.33.33,0,0,0,.093-.331l-1.969-7.674a.789.789,0,0,1,.11-.641,24.65,24.65,0,0,0-3.2-31.358h0a24.633,24.633,0,0,0-26.347-5.325,34.134,34.134,0,0,1-15.451,25.25Z" transform="translate(-330.772 -209.615)"/></g><g transform="translate(306.488 193.293)"><path class="c" d="M340.877,262.089A34.273,34.273,0,0,1,322,256.436l-9.782,2.51a2.293,2.293,0,0,1-2.762-2.9l2.851-9.2a34.4,34.4,0,1,1,53.129,4.926h0A34.343,34.343,0,0,1,340.877,262.089Zm-18.727-7.309a.8.8,0,0,1,.445.136,32.8,32.8,0,0,0,41.245-50.653,32.22,32.22,0,0,0-23.294-9.377,32.8,32.8,0,0,0-26.706,51.381.793.793,0,0,1,.1.685l-2.966,9.564a.7.7,0,0,0,.846.889l10.128-2.6A.788.788,0,0,1,322.151,254.781Z" transform="translate(-306.488 -193.293)"/></g><g transform="translate(328.292 225.61)"><circle class="d" cx="2.972" cy="2.972" r="2.972"/><g transform="translate(8.463)"><circle class="d" cx="2.972" cy="2.972" r="2.972"/></g><g transform="translate(16.927)"><circle class="d" cx="2.972" cy="2.972" r="2.972"/></g></g><g transform="translate(353.728 202.976)"><path class="c" d="M339.2,211.9a.427.427,0,0,1-.418-.352A17.73,17.73,0,0,0,329,198.665a.425.425,0,0,1,.367-.766,18.582,18.582,0,0,1,10.258,13.5.422.422,0,0,1-.344.49A.305.305,0,0,1,339.2,211.9Z" transform="translate(-328.755 -197.857)"/></g><g transform="translate(380.884 275.087)"><path class="c" d="M343,232.816c-.352,0-.7-.013-1.054-.036a.425.425,0,0,1-.392-.454.435.435,0,0,1,.454-.395,14.132,14.132,0,0,0,2.794-.078.43.43,0,0,1,.475.365.424.424,0,0,1-.367.475A14.668,14.668,0,0,1,343,232.816Z" transform="translate(-341.555 -231.848)"/></g><g transform="translate(371.294 270.585)"><path class="c" d="M344.528,234.759a.419.419,0,0,1-.1-.013,14.862,14.862,0,0,1-7.277-4.3.425.425,0,0,1,.622-.579,14,14,0,0,0,6.861,4.061.424.424,0,0,1-.1.836Z" transform="translate(-337.035 -229.726)"/></g></g></g></svg>