<svg xmlns="http://www.w3.org/2000/svg" width="81" height="81" viewBox="0 0 81 81"><defs><style>.a{fill:#f4f8fd;}.b,.e{fill:none;}.b,.c,.e{stroke:#262626;stroke-linecap:round;stroke-linejoin:round;}.b{stroke-width:0.7px;}.c{fill:#82abec;}.c,.d,.e{stroke-width:0.4px;}.d{fill:#eeeeef;stroke:#25282a;stroke-miterlimit:10;}</style></defs><g transform="translate(-1034 -234)"><g transform="translate(1034 234)"><circle class="a" cx="40.5" cy="40.5" r="40.5"/><g transform="translate(15.351 7.081)"><path class="b" d="M31.677,90.433a1.548,1.548,0,0,1-1.548-1.548V25.078a1.483,1.483,0,0,1,1.483-1.483H67.781L80.427,36.456V88.885a1.548,1.548,0,0,1-1.548,1.548Z" transform="translate(-30.129 -23.595)"/><path class="b" d="M59.879,23.6V36.617H72.2" transform="translate(-22.227 -23.595)"/><g transform="translate(7.232 17.428)"><circle class="c" cx="4.72" cy="4.72" r="4.72"/><circle class="d" cx="4.72" cy="4.72" r="4.72" transform="translate(0 13.802)"/><circle class="d" cx="4.72" cy="4.72" r="4.72" transform="translate(0 27.605)"/><path class="e" d="M38.2,51.163l1.741,2.614,6.32-4.742" transform="translate(-35.218 -34.266)"/><path class="e" d="M38.2,62.068l1.741,2.614,6.32-4.742" transform="translate(-35.218 -31.369)"/><line class="e" x2="6.176" transform="translate(13.206 3.454)"/><line class="e" x2="3.401" transform="translate(21.12 3.454)"/><line class="e" x2="9.794" transform="translate(26.041 3.454)"/><line class="e" x2="9.973" transform="translate(13.206 6.274)"/><line class="e" x2="3.401" transform="translate(24.917 6.274)"/><line class="e" x2="2.38" transform="translate(13.206 16.819)"/><line class="e" x2="3.401" transform="translate(17.323 16.819)"/><line class="e" x2="13.591" transform="translate(22.244 16.819)"/><line class="e" x2="12.505" transform="translate(13.206 19.638)"/><line class="e" x2="3.401" transform="translate(27.448 19.638)"/><line class="e" x2="11.239" transform="translate(13.206 31.175)"/><line class="e" x2="3.401" transform="translate(26.182 31.175)"/><line class="e" x2="4.732" transform="translate(31.103 31.175)"/><line class="e" x2="3.645" transform="translate(13.206 33.995)"/><line class="e" x2="9.729" transform="translate(18.588 33.995)"/></g></g></g></g></svg>